<svg width="13" height="13" viewBox="0 0 13 13" fill="none" xmlns="http://www.w3.org/2000/svg">
<path d="M5.54125 7.97875L3.94875 6.38625C3.85125 6.28875 3.73207 6.24 3.59125 6.24C3.45043 6.24 3.32582 6.29418 3.2175 6.4025C3.12 6.5 3.07125 6.61918 3.07125 6.76C3.07125 6.90082 3.12 7.02 3.2175 7.1175L5.2 9.11625C5.2975 9.21375 5.41125 9.2625 5.54125 9.2625C5.67125 9.2625 5.785 9.21375 5.8825 9.11625L9.76625 5.2325C9.87457 5.12418 9.92875 4.99957 9.92875 4.85875C9.92875 4.71793 9.87457 4.59332 9.76625 4.485C9.65793 4.3875 9.53062 4.34145 9.38437 4.34687C9.23812 4.3523 9.11625 4.40375 9.01875 4.50125L5.54125 7.97875ZM6.5 13C5.61168 13 4.77207 12.8294 3.98125 12.4881C3.19043 12.1469 2.4998 11.6811 1.90937 11.0906C1.31896 10.5002 0.853125 9.80957 0.511875 9.01875C0.170625 8.22793 0 7.38832 0 6.5C0 5.60082 0.170625 4.75582 0.511875 3.965C0.853125 3.17418 1.31896 2.48625 1.90937 1.90125C2.4998 1.31625 3.19043 0.853125 3.98125 0.511875C4.77207 0.170625 5.61168 0 6.5 0C7.39918 0 8.24418 0.170625 9.035 0.511875C9.82582 0.853125 10.5138 1.31625 11.0988 1.90125C11.6838 2.48625 12.1469 3.17418 12.4881 3.965C12.8294 4.75582 13 5.60082 13 6.5C13 7.38832 12.8294 8.22793 12.4881 9.01875C12.1469 9.80957 11.6838 10.5002 11.0988 11.0906C10.5138 11.6811 9.82582 12.1469 9.035 12.4881C8.24418 12.8294 7.39918 13 6.5 13Z" fill="#0367FD"/>
</svg>
